<svg width="195" height="42" viewBox="0 0 195 42" fill="none" xmlns="http://www.w3.org/2000/svg">
<path d="M32.1814 34.9769L28.3721 38.6996L27.4292 39.6304L26.9486 40.0994L26.6698 40.3552C26.5153 40.5013 26.3441 40.6286 26.1597 40.7346C25.7938 40.9456 25.3875 41.0769 24.9672 41.1201C24.7579 41.1397 24.547 41.1357 24.3386 41.1081C24.2329 41.0961 24.1279 41.0783 24.0241 41.0548L23.8462 41.0073L22.5411 40.6636C20.5598 40.1181 18.7269 38.9503 17.5108 37.2954C16.8997 36.4817 16.4194 35.5777 16.0873 34.6159C15.7846 33.6496 15.6606 32.6359 15.6897 31.6342C15.6956 31.1302 15.7728 30.6382 15.8618 30.1462C15.9981 29.6661 16.1227 29.1858 16.3008 28.759C16.6233 27.8942 17.0164 27.0573 17.476 26.2567C18.3777 24.6681 19.4693 23.198 20.7684 21.959C19.9148 23.4989 19.1905 25.107 18.6032 26.7666C18.3261 27.5796 18.0925 28.4067 17.9033 29.2444C17.7075 30.0803 17.6422 30.822 17.7015 31.6037C17.9031 34.7219 20.2827 37.4193 23.1945 38.0535L24.4817 38.344L24.624 38.3677L24.6419 38.3737L24.6776 38.3617C24.7012 38.3617 24.7189 38.344 24.7369 38.3261L26.3442 36.6723L30.0755 32.8723C32.389 30.5367 34.7142 28.2209 37.0511 25.9248L35.6101 19.6469L37.3719 15.124C37.5616 15.8589 37.7455 16.5999 37.9296 17.3411L40.0946 26.0493L40.2904 26.8381L39.7031 27.4369C37.2178 29.9679 34.7105 32.4812 32.1814 34.9769Z" fill="#3B88C9"/>
<path d="M19.1779 20.3704C17.938 21.6687 16.467 22.7593 14.8833 23.6666C14.0819 24.1271 13.2424 24.5177 12.374 24.8342C11.9473 25.0122 11.4663 25.1365 10.9859 25.2729C10.4995 25.3678 10.0012 25.439 9.50285 25.4507C8.50024 25.4803 7.4861 25.3558 6.51314 25.0476C5.54982 24.7179 4.64486 24.2377 3.83189 23.625C2.18291 22.4157 1.01434 20.5838 0.461405 18.5978L0.124996 17.2998L0.0716655 17.116C0.0539597 17.0152 0.036254 16.9145 0.0243079 16.8077C-0.00343888 16.5994 -0.00744651 16.3885 0.0123619 16.1793C0.0533861 15.7579 0.182766 15.3499 0.392075 14.9818C0.501628 14.8 0.628735 14.6293 0.771575 14.4721L1.03268 14.1993L1.50199 13.7192L2.42738 12.7707L6.15199 8.96505C8.66129 6.44547 11.1651 3.93208 13.7036 1.45429L14.3024 0.867188L15.0855 1.05692L22.719 2.9717C23.8055 3.2386 24.897 3.51062 25.9828 3.78967L21.5103 5.53264L15.2163 4.10433C12.9207 6.4459 10.5953 8.75784 8.26409 11.0753L4.45543 14.7981L2.80048 16.4046C2.78435 16.4215 2.77218 16.4417 2.76486 16.4639L2.75888 16.5065V16.5184L2.78854 16.6664L3.07332 17.947C3.70795 20.8577 6.41309 23.2407 9.52738 23.4364C10.3103 23.4956 11.0575 23.4364 11.894 23.2407C12.7127 23.0509 13.5432 22.8143 14.3685 22.5352C16.0288 21.9478 17.6374 21.2237 19.1779 20.3704Z" fill="#3B88C9"/>
<path d="M7.62296 33.5092C2.85841 28.7479 2.91409 26.6067 2.91409 26.6067C10.7643 29.222 16.9398 24.1978 16.9398 24.1978C16.9398 24.1978 11.9133 30.3685 14.5293 38.2143C14.5303 38.2163 12.3877 38.2708 7.62296 33.5092Z" fill="#FE8D2F"/>
<path d="M28.5604 23.105C27.2299 23.9426 25.7285 24.7301 24.0281 25.4393L23.532 25.6463C23.527 26.8309 23.3101 28.4786 22.4316 30.257C22.4316 30.257 28.2402 28.5564 28.5604 23.105Z" fill="#FE8D2F"/>
<path d="M18.0349 12.5859C17.1967 13.9155 16.4085 15.4159 15.6988 17.1152L15.4917 17.6112C14.3062 17.6159 12.6577 17.8327 10.8779 18.7106C10.8779 18.7102 12.5798 12.9059 18.0349 12.5859Z" fill="#FE8D2F"/>
<path d="M33.3181 7.83094C34.8274 9.33919 35.5567 10.7888 35.8993 11.9809C37.5903 7.64206 37.0726 4.07939 37.0726 4.07939C37.0726 4.07939 33.5078 3.56243 29.166 5.25188C30.3583 5.59383 31.8089 6.32269 33.3181 7.83094Z" fill="#FE8D2F"/>
<path d="M34.4944 14.8271C34.6859 14.5089 34.7841 14.1433 34.7777 13.7721C34.7641 12.7757 34.4055 10.9027 32.3245 8.82394C30.2435 6.74522 28.371 6.38729 27.3737 6.37237C27.0021 6.36592 26.6362 6.4641 26.3178 6.65568C23.0753 8.61886 19.737 11.9997 17.3184 17.7907C17.3184 17.7907 18.8374 17.6447 21.1673 19.9728C23.4972 22.301 23.3509 23.8192 23.3509 23.8192C29.1466 21.4031 32.5297 18.0683 34.4944 14.8271ZM25.8963 15.2492C25.5795 14.9327 25.3638 14.5294 25.2764 14.0904C25.1891 13.6514 25.2339 13.1964 25.4053 12.7829C25.5767 12.3693 25.867 12.0159 26.2394 11.7672C26.6118 11.5185 27.0497 11.3858 27.4976 11.3858C27.9455 11.3858 28.3833 11.5185 28.7557 11.7672C29.1281 12.0159 29.4184 12.3693 29.5898 12.7829C29.7612 13.1964 29.8061 13.6514 29.7187 14.0904C29.6313 14.5294 29.4156 14.9327 29.0989 15.2492C28.8886 15.4594 28.6389 15.6261 28.3642 15.7399C28.0894 15.8537 27.7949 15.9122 27.4974 15.9122C27.2 15.9122 26.9055 15.8537 26.6307 15.7399C26.356 15.6261 26.1063 15.4594 25.896 15.2492H25.8963Z" fill="#3B88C9"/>
<path d="M50.291 29.0198L53.716 12.9375H57.842L55.2219 25.2672H62.2981L61.4933 29.0196L50.291 29.0198Z" fill="#3B88C9"/>
<path d="M72.1375 12.9375H76.635L78.8634 29.0198H74.2421L74.0774 26.4421H68.9395L67.6609 29.0198H63.0391L72.1375 12.9375ZM70.6316 23.0402H73.8296L73.438 17.3904L70.6316 23.0402Z" fill="#3B88C9"/>
<path d="M92.5198 12.9375H96.7289L94.7482 22.1951C94.0257 25.597 91.9211 29.473 86.2887 29.473C80.6562 29.473 80.2022 25.597 80.9245 22.1951L82.9057 12.9375H87.1147L85.0719 22.5042C84.7424 24.0507 84.9279 25.6593 87.1147 25.6593C89.3016 25.6593 90.1473 24.0507 90.4774 22.5042L92.5198 12.9375Z" fill="#3B88C9"/>
<path d="M98.79 12.9375H102.504L106.589 21.5976L108.426 12.9375H112.552L109.127 29.0198H105.413L101.349 20.258L99.4918 29.0198H95.3652L98.79 12.9375Z" fill="#3B88C9"/>
<path d="M121.193 25.3495C122.431 25.3495 123.855 25.1431 124.866 24.8134L124.02 28.8137C122.803 29.2467 121.565 29.4735 119.646 29.4735C113.373 29.4735 111.909 25.5971 112.879 21.0202C113.869 16.4224 116.964 12.5254 123.257 12.5254C125.175 12.5254 126.289 12.7937 127.341 13.2466L126.496 17.2053C125.63 16.8755 124.309 16.6485 123.051 16.6485C120.018 16.6485 117.728 18.1119 117.109 21.02C116.489 23.9684 118.161 25.3495 121.193 25.3495Z" fill="#3B88C9"/>
<path d="M133.591 12.9375L132.311 18.9788H137.366L138.645 12.9375H142.771L139.346 29.0198H135.221L136.52 22.8756H131.465L130.166 29.0198H126.039L129.464 12.9375H133.591Z" fill="#3B88C9"/>
<path d="M152.178 25.4118L153.229 20.4842H157.377L155.582 28.8752C154.137 29.2259 152.982 29.4735 150.465 29.4735C144.193 29.4735 142.707 25.7001 143.698 21.0202C144.709 16.3194 147.783 12.5254 154.076 12.5254C156.16 12.5254 157.831 12.8344 158.904 13.1436L158.017 17.3292C157.067 16.9991 155.685 16.6485 153.87 16.6485C150.775 16.6485 148.651 18.0719 148.01 21.02C147.371 24.0921 148.855 25.4116 151.993 25.4116L152.178 25.4118Z" fill="#FE8D2F"/>
<path d="M171.177 29.0198H166.452L164.143 25.0402H162.595L161.75 29.0198H157.622L161.047 12.9375H167.67C172.147 12.9375 173.736 14.6899 172.787 19.1437C172.271 21.5976 170.807 23.7621 168.64 24.525L171.177 29.0198ZM164.41 16.5461L163.358 21.4537H165.483C167.237 21.4537 168.206 20.8762 168.6 19.0623C168.991 17.1861 168.29 16.5461 166.536 16.5461H164.41Z" fill="#FE8D2F"/>
<path d="M172.825 29.0198L176.25 12.9375H180.377L176.952 29.0198H172.825Z" fill="#FE8D2F"/>
<path d="M179.014 29.0198L182.439 12.9375H188.566C194.859 12.9375 195.622 16.4835 194.653 21.0201C193.704 25.5561 191.62 29.0198 185.142 29.0198H179.014ZM185.74 16.7525L183.945 25.206H186.029C189.143 25.206 189.99 23.4535 190.505 21.0205C191.042 18.5662 190.733 16.7525 187.824 16.7525H185.74Z" fill="#FE8D2F"/>
</svg>
