<svg width="91" height="212" viewBox="0 0 91 212" fill="none" xmlns="http://www.w3.org/2000/svg">
<path d="M76.9124 194.919C73.8664 194.539 71.9626 194.349 70.0588 193.97C68.1551 193.59 66.6321 192.072 67.2032 190.363C67.5839 189.225 69.1069 188.086 70.4396 187.517C71.9626 186.947 73.8664 187.327 76.3413 187.327C74.8182 184.67 72.7241 183.531 71.0107 182.013C68.7262 179.925 68.3454 178.217 69.6781 176.698C71.0107 175.18 73.2952 174.99 75.3894 176.509C79.9584 179.925 84.5275 183.531 88.9061 187.137C91.7618 189.604 91.7618 192.072 88.9061 194.729C87.1927 196.437 85.0986 197.765 83.3852 199.474C79.3873 203.08 75.3894 206.686 71.3915 210.292C69.8685 211.81 68.1551 212.38 66.2513 211.051C64.5379 209.912 64.1572 207.255 65.4898 205.547C66.6321 204.029 67.9647 202.7 69.2973 201.372C71.5818 199.474 73.8664 197.576 76.9124 194.919Z" fill="#3B88C9"/>
<path d="M33.5069 61.4934C32.1743 61.4934 31.2224 61.873 30.4609 61.6832C29.3186 61.1138 27.986 60.1648 27.6052 59.2158C27.2245 58.4567 27.986 56.7485 28.9379 56.1791C30.6513 54.8506 32.9358 54.0914 35.2203 52.7628C35.6011 51.4343 35.7914 49.9159 36.3626 48.3976C36.9337 46.4996 38.076 44.9813 40.5508 45.1711C43.0257 45.5507 43.5969 47.2588 43.2161 49.3466C43.2161 49.9159 43.2161 50.2955 43.0257 51.0547C44.7391 52.1935 47.7852 52.0037 47.7852 55.0404C47.7852 58.8363 44.168 58.0771 42.0739 59.4056C41.6931 60.7342 41.3124 62.0628 41.122 63.3913C40.7412 65.2893 39.599 66.8076 37.6952 66.6178C36.5529 66.428 35.4107 64.9097 34.4588 63.9607C33.6973 63.2015 33.8877 62.4423 33.5069 61.4934Z" fill="#3B88C9"/>
<path d="M0.000170851 100.97C1.33281 99.0725 2.28469 97.3644 4.5692 97.744C6.85372 98.1235 7.42485 99.8317 7.42485 102.109C7.42485 107.993 7.61524 113.876 7.61524 119.76C7.61524 121.848 7.42486 123.746 4.94996 124.315C3.04619 124.885 0.761677 123.366 0.5713 120.899C0.190547 114.256 0.190548 107.613 0.000170851 100.97Z" fill="#3B88C9"/>
<path d="M59.0166 14.0448C56.3513 13.2856 55.0187 10.6285 56.7321 9.11015C60.5396 5.88365 64.9182 2.84694 69.2969 0.189826C70.0584 -0.189762 72.3429 0.759208 73.1044 1.70818C74.4371 2.84694 73.6756 4.55509 72.3429 5.69385C68.9162 8.35097 65.4894 10.8183 61.8722 13.2856C60.9203 13.855 59.5877 13.855 59.0166 14.0448Z" fill="#3B88C9"/>
<path d="M10.4714 152.595C9.90027 151.835 8.56764 150.697 8.18688 149.368C6.85425 145.572 5.71198 141.776 4.56973 137.98C3.9986 136.272 4.56973 134.754 6.28312 133.995C8.18688 133.236 10.0906 133.805 10.6618 135.513C12.3752 140.068 14.0886 144.623 15.2308 149.178C15.8019 151.646 13.3271 153.354 10.4714 152.595Z" fill="#3B88C9"/>
<path d="M10.0906 81.991C7.42534 81.2319 6.0927 78.9543 7.42534 77.2462C10.4714 73.4503 14.0885 69.6544 17.5153 66.2381C18.8479 64.9096 20.9421 65.2892 22.2747 66.8075C23.6074 68.3259 23.0362 70.034 21.7036 71.3626C19.0383 74.2095 16.5634 77.0564 13.8981 79.7135C12.7559 81.0421 11.0425 81.6115 10.0906 81.991Z" fill="#3B88C9"/>
<path d="M53.4964 54.4709C53.3061 54.2811 51.9734 53.1423 51.9734 52.0036C51.9734 50.8648 53.3061 48.9669 54.4483 48.5873C59.5885 47.2587 64.7287 47.6383 69.4881 50.2954C71.2015 51.2444 72.1533 52.7628 71.3918 54.6607C70.6303 56.7484 68.9169 56.7484 67.0132 56.3688C63.0153 55.7995 58.827 55.2301 53.4964 54.4709Z" fill="#3B88C9"/>
<path d="M51.7831 191.123C49.4986 189.984 46.0718 188.276 42.8354 186.188C41.3124 185.239 40.3605 183.531 41.3124 181.633C42.4547 179.545 44.3585 179.545 46.2622 180.304C49.3082 181.633 52.1639 183.151 55.2099 184.48C58.2559 185.808 59.5886 187.327 58.8271 189.225C58.2559 191.312 55.7811 192.072 51.7831 191.123Z" fill="#3B88C9"/>
<path d="M88.5257 69.6545C87.9546 71.932 85.099 73.0707 83.5759 71.3626C80.3395 67.9463 77.4839 64.3402 74.8186 60.5443C74.2475 59.7852 74.4379 57.8872 75.009 57.3178C75.7705 56.5587 77.4839 55.9893 78.6262 56.3689C82.0529 56.9383 88.3354 64.9096 88.5257 68.3259C88.7161 68.7055 88.5257 69.2749 88.5257 69.6545Z" fill="#3B88C9"/>
<path d="M57.4944 103.058C56.5425 101.73 55.2099 100.781 55.2099 99.642C55.2099 98.5032 56.1618 96.6053 57.1137 96.4155C61.4923 95.4665 66.0614 94.7073 70.44 94.3278C71.3919 94.3278 72.9149 95.8461 73.2957 96.7951C73.4861 97.7441 72.5342 99.8318 71.7727 100.211C67.0133 101.35 62.4442 102.109 57.4944 103.058Z" fill="#3B88C9"/>
<path d="M32.5547 171.194C31.4124 173.472 29.8894 174.231 27.9857 173.472C26.8434 172.902 25.7011 171.953 24.7493 171.005C22.8455 169.107 20.9417 166.829 19.038 164.931C17.7053 163.603 17.3246 162.274 18.2764 160.756C19.4187 158.858 21.1321 158.858 22.8455 159.617C23.607 159.996 24.3685 160.376 24.9396 160.945C27.0338 163.223 29.3183 165.5 31.2221 167.968C31.9836 168.727 32.1739 170.245 32.5547 171.194Z" fill="#3B88C9"/>
<path d="M42.2638 28.0895C43.9772 25.6222 45.5002 22.7753 47.5943 20.4978C48.7366 18.9794 50.6403 18.7896 52.1634 20.1182C53.6864 21.4467 53.496 22.9651 52.5441 24.863C51.2115 27.1406 50.2596 29.4181 49.1173 31.8854C48.3558 33.7834 47.2136 35.3017 44.9291 34.9221C43.0253 34.5425 41.883 32.6446 42.2638 29.9875C42.2638 29.4181 42.4542 29.0385 42.6445 28.4691C42.6445 28.2793 42.4542 28.0895 42.2638 28.0895Z" fill="#3B88C9"/>
<path d="M42.6444 91.1012C41.5021 90.1523 40.5502 89.5829 39.9791 88.8237C38.4561 86.5462 36.9331 84.2686 35.4101 81.9911C34.4582 80.283 34.2678 78.385 36.1716 77.436C37.3138 76.8667 39.5984 77.0565 40.3599 77.8156C42.6444 80.4728 44.7385 83.5095 46.4519 86.736C46.8327 87.4951 46.2615 89.2033 45.6904 89.9625C44.9289 90.7216 43.5963 90.7216 42.6444 91.1012Z" fill="#3B88C9"/>
<path d="M88.5256 86.9258C87.5737 88.4441 86.0507 90.9115 84.1469 93.189C82.8143 94.8971 80.7201 95.0869 79.0067 93.5686C77.4837 92.24 78.0549 90.5319 79.0067 88.8237C80.149 86.736 81.4816 84.6483 82.4335 82.5605C83.3854 80.4728 84.1469 78.5748 86.8122 79.1442C88.9063 79.5238 89.6678 81.8013 89.0967 84.6483C88.9063 85.2176 88.9063 85.4074 88.5256 86.9258Z" fill="#3B88C9"/>
</svg>
